<svg version="1.1" xmlns="http://www.w3.org/2000/svg" xmlns:xlink="http://www.w3.org/1999/xlink" width="1266" height="531" viewBox="0 0 1266 531"><defs/><g transform="matrix(1,0,0,1,0,0)"><g><g><g><path fill="none" stroke="#d3d3d3" paint-order="fill stroke markers" d=" M 0 0 L 1200 0" stroke-miterlimit="10" stroke-opacity="0.8" stroke-dasharray="5"/></g><g><path fill="none" stroke="#d3d3d3" paint-order="fill stroke markers" d=" M 0 0 L 0 800" stroke-miterlimit="10" stroke-opacity="0.8" stroke-dasharray="5"/></g></g><g id="_385CCC9F-6290-4F91-8593-0A3C578B3275" bpmn2nodeid="_385CCC9F-6290-4F91-8593-0A3C578B3275" transform="matrix(1,0,0,1,333.5,31)"><g><path fill="none" stroke="none"/></g><g transform="matrix(1,0,0,1,0,0)"><path fill="#ffffff" stroke="none" id="_385CCC9F-6290-4F91-8593-0A3C578B3275?shapeType=BACKGROUND" paint-order="stroke fill markers" d=" M 2 0 L 727 0 L 727 0 A 2 2 0 0 1 729 2 L 729 233 L 729 233 A 2 2 0 0 1 727 235 L 2 235 L 2 235 A 2 2 0 0 1 0 233 L 0 2 L 0 2.0000000000000004 A 2 2 0 0 1 1.9999999999999996 0 Z"/></g><g transform="matrix(1,0,0,1,0,0)"><path fill="none" stroke="#393f44" id="_385CCC9F-6290-4F91-8593-0A3C578B3275?shapeType=BORDER&amp;renderType=STROKE" paint-order="fill stroke markers" d=" M 2 0 L 727 0 L 727 0 A 2 2 0 0 1 729 2 L 729 233 L 729 233 A 2 2 0 0 1 727 235 L 2 235 L 2 235 A 2 2 0 0 1 0 233 L 0 2 L 0 2.0000000000000004 A 2 2 0 0 1 1.9999999999999996 0 Z" stroke-miterlimit="10" stroke-width="1.5" stroke-dasharray=""/></g><g transform="matrix(1,0,0,1,318.953125,0)"><text fill="#000000" stroke="none" font-family="Open Sans" font-size="12pt" font-style="normal" font-weight="normal" text-decoration="normal" x="45.546875" y="12" text-anchor="middle" dominant-baseline="alphabetic">Sub-process</text></g><g id="_24DD12B0-630C-494A-987E-F01CA3ABFF7E" bpmn2nodeid="_24DD12B0-630C-494A-987E-F01CA3ABFF7E" transform="matrix(1,0,0,1,601.5,45)"><g><path fill="none" stroke="none"/></g><g transform="matrix(0.125,0,0,0.125,0,0)"><g transform="matrix(1,0,0,1,0,0)"><path fill="#fce7e7" stroke="none" id="_24DD12B0-630C-494A-987E-F01CA3ABFF7E?shapeType=BACKGROUND" paint-order="stroke fill markers" d=" M 0 0 M 444 224 C 444 263.9 434.2 300.8 414.4 334.5 C 394.7 368.2 368 394.9 334.4 414.5 C 300.79999999999995 434.1 263.9 444 224 444 C 184.10000000000002 444 147.2 434.2 113.5 414.4 C 79.8 394.7 53.1 368 33.5 334.4 C 13.899999999999999 300.79999999999995 4 263.9 4 224 C 4 184.10000000000002 13.8 147.2 33.6 113.5 C 53.400000000000006 79.80000000000001 80.1 53.1 113.6 33.5 C 147.1 13.899999999999999 184.1 4 224 4 C 263.9 4 300.8 13.8 334.5 33.6 C 368.2 53.400000000000006 394.9 80.1 414.5 113.6 C 434.1 147.1 444 184.1 444 224 Z"/></g><g><g transform="matrix(1,0,0,1,0,0)"><g transform="matrix(1,0,0,1,0,0)"><path fill="#a30000" stroke="none" id="_24DD12B0-630C-494A-987E-F01CA3ABFF7E?shapeType=BORDER&amp;renderType=FILL" paint-order="stroke fill markers" d=" M 0 0 M 224 0 C 100.3 0 0 100.3 0 224 C 0 347.7 100.3 448 224 448 C 347.7 448 448 347.7 448 224 C 448 100.30000000000001 347.7 0 224 0 Z M 0 0 M 224 400 C 126.8 400 48 321.2 48 224 C 48 126.80000000000001 126.8 48 224 48 C 321.2 48 400 126.8 400 224 C 400 321.2 321.2 400 224 400 Z"/></g></g></g></g><g transform="matrix(1,0,0,1,28,61)"/></g><g id="_C77AE169-46C2-490A-A803-7363DF952B47" bpmn2nodeid="_C77AE169-46C2-490A-A803-7363DF952B47" transform="matrix(1,0,0,1,601.5,143)"><g><path fill="none" stroke="none"/></g><g transform="matrix(0.125,0,0,0.125,0,0)"><g transform="matrix(1,0,0,1,0,0)"><path fill="#fce7e7" stroke="none" id="_C77AE169-46C2-490A-A803-7363DF952B47?shapeType=BACKGROUND" paint-order="stroke fill markers" d=" M 0 0 M 444 224 C 444 263.9 434.2 300.8 414.4 334.5 C 394.7 368.2 368 394.9 334.4 414.5 C 300.79999999999995 434.1 263.9 444 224 444 C 184.10000000000002 444 147.2 434.2 113.5 414.4 C 79.8 394.7 53.1 368 33.5 334.4 C 13.899999999999999 300.79999999999995 4 263.9 4 224 C 4 184.10000000000002 13.8 147.2 33.6 113.5 C 53.400000000000006 79.80000000000001 80.1 53.1 113.6 33.5 C 147.1 13.899999999999999 184.1 4 224 4 C 263.9 4 300.8 13.8 334.5 33.6 C 368.2 53.400000000000006 394.9 80.1 414.5 113.6 C 434.1 147.1 444 184.1 444 224 Z"/></g><g><g transform="matrix(1,0,0,1,0,0)"><g transform="matrix(1,0,0,1,0,0)"><path fill="#a30000" stroke="none" id="_C77AE169-46C2-490A-A803-7363DF952B47?shapeType=BORDER&amp;renderType=FILL" paint-order="stroke fill markers" d=" M 0 0 M 224 0 C 100.3 0 0 100.3 0 224 C 0 347.7 100.3 448 224 448 C 347.7 448 448 347.7 448 224 C 448 100.30000000000001 347.7 0 224 0 Z M 0 0 M 224 400 C 126.8 400 48 321.2 48 224 C 48 126.80000000000001 126.8 48 224 48 C 321.2 48 400 126.8 400 224 C 400 321.2 321.2 400 224 400 Z"/></g></g></g><g><g transform="matrix(1,0,0,1,0,0)"><g transform="matrix(1,0,0,1,0,0)"><path fill="#a30000" stroke="none" id="_C77AE169-46C2-490A-A803-7363DF952B47undefined" paint-order="stroke fill markers" d=" M 0 0 M 173.5 132.7 C 172.8 132.7 172.1 132.79999999999998 171.3 133.1 C 168 134.29999999999998 167.5 135.9 165.60000000000002 139.9 C 164.00000000000003 143.3 120.40000000000002 278.3 120.40000000000002 278.3 C 120.40000000000002 278.3 119.10000000000002 282.8 122.90000000000002 284.40000000000003 C 123.50000000000001 284.70000000000005 124.10000000000002 284.8 124.70000000000002 284.8 C 127.50000000000001 284.8 129.4 282.2 129.4 282.2 L 192.3 228.29999999999998 L 263.9 305.4 C 266 307.4 267.9 308.7 270.09999999999997 308.7 C 270.79999999999995 308.7 271.49999999999994 308.5 272.29999999999995 308.3 C 275.59999999999997 307.1 276.4 305.1 277.99999999999994 301.5 C 279.49999999999994 298.1 328.09999999999997 163.1 328.09999999999997 163.1 C 328.09999999999997 163.1 329.4 158.6 325.7 157 C 325.09999999999997 156.7 324.5 156.6 323.8 156.6 C 321 156.6 319.2 159.2 319.2 159.2 L 256.3 213.5 C 256.3 213.5 182.70000000000002 138.6 179.8 136 C 177.6 134 175.7 132.7 173.5 132.7 L 173.5 132.7 Z"/></g></g></g></g><g transform="matrix(1,0,0,1,28,61)"/></g><g id="_D4ECCAAC-DEBA-444F-88A8-D7FFB32D32F1" bpmn2nodeid="_D4ECCAAC-DEBA-444F-88A8-D7FFB32D32F1" transform="matrix(1,0,0,1,459.5,45)"><g><path fill="none" stroke="none"/></g><g transform="matrix(0.125,0,0,0.125,0,0)"><g transform="matrix(1,0,0,1,0,0)"><path fill="#fef4ea" stroke="none" id="_D4ECCAAC-DEBA-444F-88A8-D7FFB32D32F1?shapeType=BACKGROUND" paint-order="stroke fill markers" d=" M 0 0 M 224.4 4.3 C 216.4 4.3 208.4 7.3 202.3 13.399999999999999 L 13.5 202.2 C 1.3000000000000007 214.39999999999998 1.3000000000000007 234.2 13.5 246.39999999999998 L 202.2 435.09999999999997 C 208.29999999999998 441.2 216.39999999999998 444.2 224.29999999999998 444.2 C 232.2 444.2 240.29999999999998 441.2 246.39999999999998 435.09999999999997 L 435.09999999999997 246.39999999999998 C 447.29999999999995 234.2 447.29999999999995 214.39999999999998 435.09999999999997 202.2 L 246.5 13.4 C 240.4 7.3 232.4 4.3 224.4 4.3 L 224.4 4.3 Z"/></g><g><g transform="matrix(1,0,0,1,0,0)"><g transform="matrix(1,0,0,1,0,0)"><path fill="#ec7a08" stroke="none" id="_D4ECCAAC-DEBA-444F-88A8-D7FFB32D32F1?shapeType=BORDER&amp;renderType=FILL" paint-order="stroke fill markers" d=" M 0 0 M 20.8 212.7 L 213.3 20.2 C 219.60000000000002 13.899999999999999 229.70000000000002 13.899999999999999 235.9 20.2 L 428.4 212.7 C 434.7 219 434.7 229.1 428.4 235.29999999999998 L 235.9 427.8 C 229.6 434.1 219.5 434.1 213.3 427.8 L 20.8 235.3 C 14.5 229.1 14.5 218.9 20.8 212.7 L 20.8 212.7 Z M 0 0 M 0 224 C 0 232.1 3.1 240.3 9.3 246.5 L 201.5 438.7 C 213.9 451.09999999999997 234.1 451.09999999999997 246.5 438.7 L 438.7 246.5 C 444.9 240.3 448 232.1 448 224 C 448 215.9 444.9 207.7 438.7 201.5 L 246.5 9.3 C 234.1 -3.0999999999999996 213.9 -3.0999999999999996 201.5 9.3 L 9.3 201.5 C 3.1 207.7 0 215.9 0 224 L 0 224 Z"/></g></g></g><g><g transform="matrix(1,0,0,1,0,0)"><g transform="matrix(1,0,0,1,0,0)"><path fill="#ec7a08" stroke="none" id="_D4ECCAAC-DEBA-444F-88A8-D7FFB32D32F1undefined" paint-order="stroke fill markers" d=" M 0 0 M 298.2 269.2 C 298.2 272.59999999999997 297.09999999999997 275.3 294.7 277.7 L 277.7 294.7 C 275.3 297.09999999999997 272.59999999999997 298.2 269.2 298.2 C 265.8 298.2 263.09999999999997 297.09999999999997 260.7 294.7 L 224 258 L 187.2 294.8 C 184.79999999999998 297.2 182.1 298.3 178.7 298.3 C 175.29999999999998 298.3 172.6 297.2 170.2 294.8 L 153.2 277.8 C 150.79999999999998 275.40000000000003 149.7 272.7 149.7 269.3 C 149.7 265.90000000000003 150.79999999999998 263.2 153.2 260.8 L 190 224 L 153.2 187.2 C 150.79999999999998 184.79999999999998 149.7 182 149.7 178.7 C 149.7 175.29999999999998 150.79999999999998 172.5 153.2 170.2 L 170.2 153.2 C 172.6 150.79999999999998 175.29999999999998 149.7 178.7 149.7 C 182.1 149.7 184.79999999999998 150.79999999999998 187.2 153.2 L 224 190 L 260.8 153.2 C 263.2 150.79999999999998 265.90000000000003 149.7 269.3 149.7 C 272.7 149.7 275.40000000000003 150.79999999999998 277.8 153.2 L 294.8 170.2 C 297.2 172.5 298.3 175.29999999999998 298.3 178.7 C 298.3 182 297.2 184.79999999999998 294.8 187.2 L 258 224 L 294.8 260.8 C 297.1 263.1 298.2 265.9 298.2 269.2 Z"/></g></g></g></g><g transform="matrix(1,0,0,1,28,61)"/></g><g id="_445AE594-7180-4B1A-9614-664C56D212BC" bpmn2nodeid="_445AE594-7180-4B1A-9614-664C56D212BC" transform="matrix(1,0,0,1,31.5,45)"><g><path fill="none" stroke="none"/></g><g transform="matrix(0.125,0,0,0.125,0,0)"><g transform="matrix(1,0,0,1,0,0)"><path fill="#e8fae6" stroke="none" id="_445AE594-7180-4B1A-9614-664C56D212BC?shapeType=BACKGROUND" paint-order="stroke fill markers" d=" M 0 0 M 444 224 C 444 263.9 434.2 300.8 414.4 334.5 C 394.7 368.2 368 394.9 334.4 414.5 C 300.79999999999995 434.1 263.9 444 224 444 C 184.10000000000002 444 147.2 434.2 113.5 414.4 C 79.8 394.7 53.1 368 33.5 334.4 C 13.899999999999999 300.79999999999995 4 263.9 4 224 C 4 184.10000000000002 13.8 147.2 33.6 113.5 C 53.400000000000006 79.80000000000001 80.1 53.1 113.6 33.5 C 147.1 13.899999999999999 184.1 4 224 4 C 263.9 4 300.8 13.8 334.5 33.6 C 368.2 53.400000000000006 394.9 80.1 414.5 113.6 C 434.1 147.1 444 184.1 444 224 Z"/></g><g><g transform="matrix(1,0,0,1,0,0)"><g transform="matrix(1,0,0,1,0,0)"><path fill="#4aa241" stroke="none" id="_445AE594-7180-4B1A-9614-664C56D212BC?shapeType=BORDER&amp;renderType=FILL" paint-order="stroke fill markers" d=" M 0 0 M 224 0 C 100.3 0 0 100.3 0 224 C 0 347.7 100.3 448 224 448 C 347.7 448 448 347.7 448 224 C 448 100.30000000000001 347.7 0 224 0 Z M 0 0 M 224 432 C 109.1 432 16 338.9 16 224 C 16 109.10000000000002 109.1 16 224 16 C 338.9 16 432 109.1 432 224 C 432 338.9 338.9 432 224 432 Z"/></g></g></g></g><g transform="matrix(1,0,0,1,28,61)"/></g><g id="_A6F20730-C680-4B6D-B3B7-86A9353667DB" bpmn2nodeid="_A6F20730-C680-4B6D-B3B7-86A9353667DB" transform="matrix(1,0,0,1,215.5,22)"><g><path fill="none" stroke="none"/></g><g transform="matrix(1,0,0,1,0,0)"><path fill="#ffffff" stroke="none" id="_A6F20730-C680-4B6D-B3B7-86A9353667DB?shapeType=BACKGROUND" paint-order="stroke fill markers" d=" M 2 0 L 152 0 L 152 0 A 2 2 0 0 1 154 2 L 154 100 L 154 100 A 2 2 0 0 1 152 102 L 2 102 L 2 102 A 2 2 0 0 1 0 100 L 0 2 L 0 2.0000000000000004 A 2 2 0 0 1 1.9999999999999996 0 Z"/></g><g transform="matrix(1,0,0,1,0,0)"><path fill="none" stroke="#000000" id="_A6F20730-C680-4B6D-B3B7-86A9353667DB?shapeType=BORDER&amp;renderType=STROKE" paint-order="fill stroke markers" d=" M 2 0 L 152 0 L 152 0 A 2 2 0 0 1 154 2 L 154 100 L 154 100 A 2 2 0 0 1 152 102 L 2 102 L 2 102 A 2 2 0 0 1 0 100 L 0 2 L 0 2.0000000000000004 A 2 2 0 0 1 1.9999999999999996 0 Z" stroke-miterlimit="10" stroke-width="1.5" stroke-dasharray=""/></g><g><g transform="matrix(1,0,0,1,0,0)"><g transform="matrix(1,0,0,1,10,10)"/></g></g><g transform="matrix(1,0,0,1,30,28.5)"><text fill="#000000" stroke="none" font-family="Open Sans" font-size="12pt" font-style="normal" font-weight="normal" text-decoration="normal" x="58.10546875" y="12" text-anchor="middle" dominant-baseline="alphabetic">REST (Motivo /  </text><text fill="#000000" stroke="none" font-family="Open Sans" font-size="12pt" font-style="normal" font-weight="normal" text-decoration="normal" x="58.10546875" y="27" text-anchor="middle" dominant-baseline="alphabetic">Sum motivo / O</text><text fill="#000000" stroke="none" font-family="Open Sans" font-size="12pt" font-style="normal" font-weight="normal" text-decoration="normal" x="58.10546875" y="42" text-anchor="middle" dominant-baseline="alphabetic">   bservación)    </text></g></g><g id="_EDBFB402-8C9B-4401-9F27-AE273EECE8BD" bpmn2nodeid="_EDBFB402-8C9B-4401-9F27-AE273EECE8BD" transform="matrix(1,0,0,1,466.168284789644,207)"><g><path fill="none" stroke="none"/></g><g transform="matrix(0.125,0,0,0.125,0,0)"><g transform="matrix(1,0,0,1,0,0)"><path fill="#fbefcf" stroke="none" id="_EDBFB402-8C9B-4401-9F27-AE273EECE8BD?shapeType=BACKGROUND" paint-order="stroke fill markers" d=" M 0 0 M 444 224 C 444 263.9 434.2 300.8 414.4 334.5 C 394.7 368.2 368 394.9 334.4 414.5 C 300.79999999999995 434.1 263.9 444 224 444 C 184.10000000000002 444 147.2 434.2 113.5 414.4 C 79.8 394.7 53.1 368 33.5 334.4 C 13.899999999999999 300.79999999999995 4 263.9 4 224 C 4 184.10000000000002 13.8 147.2 33.6 113.5 C 53.400000000000006 79.80000000000001 80.1 53.1 113.6 33.5 C 147.1 13.899999999999999 184.1 4 224 4 C 263.9 4 300.8 13.8 334.5 33.6 C 368.2 53.400000000000006 394.9 80.1 414.5 113.6 C 434.1 147.1 444 184.1 444 224 Z"/></g><g><g transform="matrix(1,0,0,1,0,0)"><g transform="matrix(1,0,0,1,0,0)"><path fill="#e5a000" stroke="none" id="_EDBFB402-8C9B-4401-9F27-AE273EECE8BD?shapeType=BORDER&amp;renderType=FILL" paint-order="stroke fill markers" d=" M 0 0 M 224 408 C 122.5 408 40 325.5 40 224 C 40 122.5 122.5 40 224 40 C 325.5 40 408 122.5 408 224 C 408 325.5 325.5 408 224 408 Z M 0 0 M 224 56 C 131.4 56 56 131.4 56 224 C 56 316.6 131.4 392 224 392 C 316.6 392 392 316.6 392 224 C 392 131.39999999999998 316.6 56 224 56 Z M 0 0 M 224 16 C 252.1 16 279.3 21.5 305 32.3 C 329.8 42.8 352 57.8 371.1 76.9 C 390.20000000000005 96.00000000000001 405.20000000000005 118.30000000000001 415.70000000000005 143 C 426.50000000000006 168.6 432.00000000000006 195.9 432.00000000000006 224 C 432.00000000000006 252.1 426.50000000000006 279.3 415.70000000000005 305 C 405.20000000000005 329.8 390.20000000000005 352 371.1 371.1 C 352 390.20000000000005 329.70000000000005 405.20000000000005 305 415.70000000000005 C 279.4 426.50000000000006 252.1 432.00000000000006 224 432.00000000000006 C 195.9 432.00000000000006 168.7 426.50000000000006 143 415.70000000000005 C 118.2 405.20000000000005 96 390.20000000000005 76.9 371.1 C 57.80000000000001 352 42.8 329.7 32.3 305 C 21.5 279.3 16 252.1 16 224 C 16 195.9 21.5 168.7 32.3 143 C 42.8 118.2 57.8 96 76.9 76.9 C 96.00000000000001 57.80000000000001 118.30000000000001 42.800000000000004 143 32.300000000000004 C 168.7 21.5 195.9 16 224 16 M 224 0 C 100.3 0 0 100.3 0 224 C 0 347.7 100.3 448 224 448 C 347.7 448 448 347.7 448 224 C 448 100.30000000000001 347.7 0 224 0 L 224 0 Z"/></g></g></g><g><g transform="matrix(1,0,0,1,0,0)"><g transform="matrix(1,0,0,1,0,0)"><path fill="#e5a000" stroke="none" id="_EDBFB402-8C9B-4401-9F27-AE273EECE8BDundefined" paint-order="stroke fill markers" d=" M 0 0 M 177 155.9 C 191.8 170.8 222.6 202.2 244.8 224.7 L 255.3 235.39999999999998 L 266.6 225.59999999999997 L 298.20000000000005 198.19999999999996 C 285.80000000000007 232.69999999999996 273.00000000000006 268.09999999999997 266.70000000000005 285.09999999999997 L 204 217.4 L 193.6 206.20000000000002 L 181.9 216.20000000000002 L 148 245.20000000000002 C 159.3 210.1 171.3 173.4 177 155.9 M 173.5 132.7 C 172.8 132.7 172.1 132.79999999999998 171.3 133.1 C 168 134.29999999999998 167.5 135.9 165.60000000000002 139.9 C 164.00000000000003 143.3 120.40000000000002 278.3 120.40000000000002 278.3 C 120.40000000000002 278.3 119.10000000000002 282.8 122.90000000000002 284.40000000000003 C 123.50000000000001 284.70000000000005 124.10000000000002 284.8 124.70000000000002 284.8 C 127.50000000000001 284.8 129.4 282.2 129.4 282.2 L 192.3 228.29999999999998 L 263.9 305.4 C 266 307.4 267.9 308.7 270.09999999999997 308.7 C 270.79999999999995 308.7 271.49999999999994 308.5 272.29999999999995 308.3 C 275.59999999999997 307.1 276.4 305.1 277.99999999999994 301.5 C 279.49999999999994 298.1 328.09999999999997 163.1 328.09999999999997 163.1 C 328.09999999999997 163.1 329.4 158.6 325.7 157 C 325.09999999999997 156.7 324.5 156.6 323.8 156.6 C 321 156.6 319.2 159.2 319.2 159.2 L 256.3 213.5 C 256.3 213.5 182.70000000000002 138.6 179.8 136 C 177.6 134 175.7 132.7 173.5 132.7 L 173.5 132.7 Z"/></g></g></g></g><g transform="matrix(1,0,0,1,28,61)"/></g><g id="_57B7D81D-FC69-4B52-B3B3-76755F8BFE9C" bpmn2nodeid="_57B7D81D-FC69-4B52-B3B3-76755F8BFE9C" transform="matrix(1,0,0,1,443,207)"><g><path fill="none" stroke="none"/></g><g transform="matrix(0.125,0,0,0.125,0,0)"><g transform="matrix(1,0,0,1,0,0)"><path fill="#fbefcf" stroke="none" id="_57B7D81D-FC69-4B52-B3B3-76755F8BFE9C?shapeType=BACKGROUND" paint-order="stroke fill markers" d=" M 0 0 M 444 224 C 444 263.9 434.2 300.8 414.4 334.5 C 394.7 368.2 368 394.9 334.4 414.5 C 300.79999999999995 434.1 263.9 444 224 444 C 184.10000000000002 444 147.2 434.2 113.5 414.4 C 79.8 394.7 53.1 368 33.5 334.4 C 13.899999999999999 300.79999999999995 4 263.9 4 224 C 4 184.10000000000002 13.8 147.2 33.6 113.5 C 53.400000000000006 79.80000000000001 80.1 53.1 113.6 33.5 C 147.1 13.899999999999999 184.1 4 224 4 C 263.9 4 300.8 13.8 334.5 33.6 C 368.2 53.400000000000006 394.9 80.1 414.5 113.6 C 434.1 147.1 444 184.1 444 224 Z"/></g><g><g transform="matrix(1,0,0,1,0,0)"><g transform="matrix(1,0,0,1,0,0)"><path fill="#e5a000" stroke="none" id="_57B7D81D-FC69-4B52-B3B3-76755F8BFE9C?shapeType=BORDER&amp;renderType=FILL" paint-order="stroke fill markers" d=" M 0 0 M 224 408 C 122.5 408 40 325.5 40 224 C 40 122.5 122.5 40 224 40 C 325.5 40 408 122.5 408 224 C 408 325.5 325.5 408 224 408 Z M 0 0 M 224 56 C 131.4 56 56 131.4 56 224 C 56 316.6 131.4 392 224 392 C 316.6 392 392 316.6 392 224 C 392 131.39999999999998 316.6 56 224 56 Z M 0 0 M 224 16 C 252.1 16 279.3 21.5 305 32.3 C 329.8 42.8 352 57.8 371.1 76.9 C 390.20000000000005 96.00000000000001 405.20000000000005 118.30000000000001 415.70000000000005 143 C 426.50000000000006 168.6 432.00000000000006 195.9 432.00000000000006 224 C 432.00000000000006 252.1 426.50000000000006 279.3 415.70000000000005 305 C 405.20000000000005 329.8 390.20000000000005 352 371.1 371.1 C 352 390.20000000000005 329.70000000000005 405.20000000000005 305 415.70000000000005 C 279.4 426.50000000000006 252.1 432.00000000000006 224 432.00000000000006 C 195.9 432.00000000000006 168.7 426.50000000000006 143 415.70000000000005 C 118.2 405.20000000000005 96 390.20000000000005 76.9 371.1 C 57.80000000000001 352 42.8 329.7 32.3 305 C 21.5 279.3 16 252.1 16 224 C 16 195.9 21.5 168.7 32.3 143 C 42.8 118.2 57.8 96 76.9 76.9 C 96.00000000000001 57.80000000000001 118.30000000000001 42.800000000000004 143 32.300000000000004 C 168.7 21.5 195.9 16 224 16 M 224 0 C 100.3 0 0 100.3 0 224 C 0 347.7 100.3 448 224 448 C 347.7 448 448 347.7 448 224 C 448 100.30000000000001 347.7 0 224 0 L 224 0 Z"/></g></g></g><g><g transform="matrix(1,0,0,1,0,0)"><g transform="matrix(1,0,0,1,0,0)"><path fill="#e5a000" stroke="none" id="_57B7D81D-FC69-4B52-B3B3-76755F8BFE9Cundefined" paint-order="stroke fill markers" d=" M 0 0 M 320.2 304.7 C 320.2 308 319.09999999999997 310.8 316.7 313.2 C 314.3 315.5 311.59999999999997 316.7 308.2 316.7 L 140.2 316.7 C 136.79999999999998 316.7 134 315.5 131.7 313.2 C 129.29999999999998 310.8 128.2 308 128.2 304.7 L 128.2 120.69999999999999 C 128.2 117.39999999999999 129.29999999999998 114.49999999999999 131.7 112.19999999999999 C 134 109.89999999999999 136.79999999999998 108.69999999999999 140.2 108.69999999999999 L 308.2 108.69999999999999 C 311.59999999999997 108.69999999999999 314.3 109.89999999999999 316.7 112.19999999999999 C 319.09999999999997 114.49999999999999 320.2 117.39999999999999 320.2 120.69999999999999 L 320.2 304.7 Z M 0 0 M 304.2 300.7 L 304.2 124.69999999999999 L 144.2 124.69999999999999 L 144.2 300.7 L 304.2 300.7 Z M 0 0 M 176.2 192.7 C 176.2 191.5 176.6 190.6 177.29999999999998 189.79999999999998 C 177.99999999999997 188.99999999999997 178.99999999999997 188.7 180.2 188.7 L 268.2 188.7 C 269.3 188.7 270.3 189.1 271.09999999999997 189.79999999999998 C 271.9 190.49999999999997 272.2 191.49999999999997 272.2 192.7 L 272.2 200.7 C 272.2 201.89999999999998 271.8 202.79999999999998 271.09999999999997 203.6 C 270.4 204.4 269.4 204.7 268.2 204.7 L 180.2 204.7 C 179 204.7 178.1 204.29999999999998 177.29999999999998 203.6 C 176.49999999999997 202.9 176.2 201.9 176.2 200.7 L 176.2 192.7 Z M 0 0 M 176.2 160.7 C 176.2 159.5 176.6 158.6 177.29999999999998 157.79999999999998 C 177.99999999999997 156.99999999999997 178.99999999999997 156.7 180.2 156.7 L 268.2 156.7 C 269.3 156.7 270.3 157.1 271.09999999999997 157.79999999999998 C 271.9 158.49999999999997 272.2 159.49999999999997 272.2 160.7 L 272.2 168.7 C 272.2 169.89999999999998 271.8 170.79999999999998 271.09999999999997 171.6 C 270.4 172.4 269.4 172.7 268.2 172.7 L 180.2 172.7 C 179 172.7 178.1 172.29999999999998 177.29999999999998 171.6 C 176.49999999999997 170.9 176.2 169.9 176.2 168.7 L 176.2 160.7 Z M 0 0 M 268.2 220.7 C 269.3 220.7 270.3 221.1 271.09999999999997 221.79999999999998 C 271.9 222.49999999999997 272.2 223.49999999999997 272.2 224.7 L 272.2 232.7 C 272.2 233.89999999999998 271.8 234.79999999999998 271.09999999999997 235.6 C 270.4 236.4 269.4 236.7 268.2 236.7 L 180.2 236.7 C 179 236.7 178.1 236.29999999999998 177.29999999999998 235.6 C 176.49999999999997 234.9 176.2 233.9 176.2 232.7 L 176.2 224.7 C 176.2 223.5 176.6 222.6 177.29999999999998 221.79999999999998 C 177.99999999999997 220.99999999999997 178.99999999999997 220.7 180.2 220.7 L 268.2 220.7 Z M 0 0 M 268.2 252.7 C 269.3 252.7 270.3 253.1 271.09999999999997 253.79999999999998 C 271.8999999999999 254.49999999999997 272.2 255.49999999999997 272.2 256.7 L 272.2 264.7 C 272.2 265.8 271.8 266.8 271.09999999999997 267.59999999999997 C 270.3999999999999 268.3999999999999 269.4 268.7 268.2 268.7 L 180.2 268.7 C 179 268.7 178.1 268.3 177.29999999999998 267.59999999999997 C 176.49999999999997 266.8999999999999 176.2 265.9 176.2 264.7 L 176.2 256.7 C 176.2 255.5 176.6 254.6 177.29999999999998 253.79999999999998 C 177.99999999999997 252.99999999999997 178.99999999999997 252.7 180.2 252.7 L 268.2 252.7 Z"/></g></g></g></g><g transform="matrix(1,0,0,1,28,61)"/></g></g><g id="_A9BED48E-0223-4C64-ADAF-DC6239342710" bpmn2nodeid="_A9BED48E-0223-4C64-ADAF-DC6239342710" transform="matrix(1,0,0,1,341,405)"><g><path fill="none" stroke="none"/></g><g transform="matrix(0.125,0,0,0.125,0,0)"><g transform="matrix(1,0,0,1,0,0)"><path fill="#fbefcf" stroke="none" id="_A9BED48E-0223-4C64-ADAF-DC6239342710?shapeType=BACKGROUND" paint-order="stroke fill markers" d=" M 0 0 M 444 224 C 444 263.9 434.2 300.8 414.4 334.5 C 394.7 368.2 368 394.9 334.4 414.5 C 300.79999999999995 434.1 263.9 444 224 444 C 184.10000000000002 444 147.2 434.2 113.5 414.4 C 79.8 394.7 53.1 368 33.5 334.4 C 13.899999999999999 300.79999999999995 4 263.9 4 224 C 4 184.10000000000002 13.8 147.2 33.6 113.5 C 53.400000000000006 79.80000000000001 80.1 53.1 113.6 33.5 C 147.1 13.899999999999999 184.1 4 224 4 C 263.9 4 300.8 13.8 334.5 33.6 C 368.2 53.400000000000006 394.9 80.1 414.5 113.6 C 434.1 147.1 444 184.1 444 224 Z"/></g><g><g transform="matrix(1,0,0,1,0,0)"><g transform="matrix(1,0,0,1,0,0)"><path fill="#e5a000" stroke="none" id="_A9BED48E-0223-4C64-ADAF-DC6239342710?shapeType=BORDER&amp;renderType=FILL" paint-order="stroke fill markers" d=" M 0 0 M 224 408 C 122.5 408 40 325.5 40 224 C 40 122.5 122.5 40 224 40 C 325.5 40 408 122.5 408 224 C 408 325.5 325.5 408 224 408 Z M 0 0 M 224 56 C 131.4 56 56 131.4 56 224 C 56 316.6 131.4 392 224 392 C 316.6 392 392 316.6 392 224 C 392 131.39999999999998 316.6 56 224 56 Z M 0 0 M 224 16 C 252.1 16 279.3 21.5 305 32.3 C 329.8 42.8 352 57.8 371.1 76.9 C 390.20000000000005 96.00000000000001 405.20000000000005 118.30000000000001 415.70000000000005 143 C 426.50000000000006 168.6 432.00000000000006 195.9 432.00000000000006 224 C 432.00000000000006 252.1 426.50000000000006 279.3 415.70000000000005 305 C 405.20000000000005 329.8 390.20000000000005 352 371.1 371.1 C 352 390.20000000000005 329.70000000000005 405.20000000000005 305 415.70000000000005 C 279.4 426.50000000000006 252.1 432.00000000000006 224 432.00000000000006 C 195.9 432.00000000000006 168.7 426.50000000000006 143 415.70000000000005 C 118.2 405.20000000000005 96 390.20000000000005 76.9 371.1 C 57.80000000000001 352 42.8 329.7 32.3 305 C 21.5 279.3 16 252.1 16 224 C 16 195.9 21.5 168.7 32.3 143 C 42.8 118.2 57.8 96 76.9 76.9 C 96.00000000000001 57.80000000000001 118.30000000000001 42.800000000000004 143 32.300000000000004 C 168.7 21.5 195.9 16 224 16 M 224 0 C 100.3 0 0 100.3 0 224 C 0 347.7 100.3 448 224 448 C 347.7 448 448 347.7 448 224 C 448 100.30000000000001 347.7 0 224 0 L 224 0 Z"/></g></g></g><g><g transform="matrix(1,0,0,1,0,0)"><g transform="matrix(1,0,0,1,0,0)"><path fill="#e5a000" stroke="none" id="_A9BED48E-0223-4C64-ADAF-DC6239342710undefined" paint-order="stroke fill markers" d=" M 0 0 M 240.2 176.7 L 240.2 232.7 C 240.2 233.89999999999998 239.79999999999998 234.79999999999998 239.1 235.6 C 238.4 236.4 237.4 236.7 236.2 236.7 L 196.2 236.7 C 195 236.7 194.1 236.29999999999998 193.29999999999998 235.6 C 192.49999999999997 234.9 192.2 233.9 192.2 232.7 L 192.2 224.7 C 192.2 223.5 192.6 222.6 193.29999999999998 221.79999999999998 C 193.99999999999997 220.99999999999997 194.99999999999997 220.7 196.2 220.7 L 224.2 220.7 L 224.2 176.7 C 224.2 175.5 224.6 174.6 225.29999999999998 173.79999999999998 C 225.99999999999997 172.99999999999997 226.99999999999997 172.7 228.2 172.7 L 236.2 172.7 C 237.29999999999998 172.7 238.29999999999998 173.1 239.1 173.79999999999998 C 239.9 174.5 240.2 175.5 240.2 176.7 Z M 0 0 M 300.2 220.7 C 300.2 206.89999999999998 296.8 194.2 290.09999999999997 182.6 C 283.29999999999995 171 274.09999999999997 161.7 262.49999999999994 154.9 C 250.79999999999995 148.1 238.09999999999994 144.70000000000002 224.29999999999995 144.70000000000002 C 210.49999999999997 144.70000000000002 197.79999999999995 148.10000000000002 186.19999999999996 154.9 C 174.59999999999997 161.70000000000002 165.39999999999995 170.9 158.59999999999997 182.5 C 151.79999999999998 194.1 148.39999999999998 206.9 148.39999999999998 220.7 C 148.39999999999998 234.49999999999997 151.79999999999998 247.2 158.49999999999997 258.8 C 165.29999999999998 270.40000000000003 174.59999999999997 279.7 186.19999999999996 286.5 C 197.79999999999995 293.3 210.49999999999997 296.7 224.29999999999995 296.7 C 238.09999999999994 296.7 250.79999999999995 293.3 262.4 286.5 C 274 279.7 283.29999999999995 270.5 290 258.9 C 296.8 247.2 300.2 234.5 300.2 220.7 Z M 0 0 M 320.2 220.7 C 320.2 238.1 315.9 254.2 307.3 268.9 C 298.7 283.59999999999997 287.1 295.29999999999995 272.40000000000003 303.79999999999995 C 257.70000000000005 312.4 241.60000000000002 316.69999999999993 224.20000000000005 316.69999999999993 C 206.80000000000007 316.69999999999993 190.70000000000005 312.3999999999999 176.00000000000006 303.79999999999995 C 161.30000000000007 295.19999999999993 149.70000000000005 283.59999999999997 141.10000000000005 268.9 C 132.50000000000006 254.2 128.30000000000004 238.09999999999997 128.30000000000004 220.7 C 128.30000000000004 203.3 132.60000000000005 187.2 141.20000000000005 172.5 C 149.80000000000004 157.8 161.40000000000003 146.1 176.10000000000005 137.5 C 190.80000000000004 128.9 206.90000000000006 124.7 224.30000000000007 124.7 C 241.70000000000007 124.7 257.80000000000007 129 272.50000000000006 137.6 C 287.20000000000005 146.2 298.90000000000003 157.9 307.40000000000003 172.5 C 316 187.2 320.2 203.3 320.2 220.7 Z"/></g></g></g></g><g transform="matrix(1,0,0,1,28,61)"/></g><g transform="matrix(1,0,0,1,341,405)"/><g id="_E972023C-8646-4FF3-A640-63288FC35BD3" bpmn2nodeid="_E972023C-8646-4FF3-A640-63288FC35BD3" transform="matrix(1,0,0,1,1072,388)"><g><path fill="none" stroke="none"/></g><g transform="matrix(0.125,0,0,0.125,0,0)"><g transform="matrix(1,0,0,1,0,0)"><path fill="#fce7e7" stroke="none" id="_E972023C-8646-4FF3-A640-63288FC35BD3?shapeType=BACKGROUND" paint-order="stroke fill markers" d=" M 0 0 M 444 224 C 444 263.9 434.2 300.8 414.4 334.5 C 394.7 368.2 368 394.9 334.4 414.5 C 300.79999999999995 434.1 263.9 444 224 444 C 184.10000000000002 444 147.2 434.2 113.5 414.4 C 79.8 394.7 53.1 368 33.5 334.4 C 13.899999999999999 300.79999999999995 4 263.9 4 224 C 4 184.10000000000002 13.8 147.2 33.6 113.5 C 53.400000000000006 79.80000000000001 80.1 53.1 113.6 33.5 C 147.1 13.899999999999999 184.1 4 224 4 C 263.9 4 300.8 13.8 334.5 33.6 C 368.2 53.400000000000006 394.9 80.1 414.5 113.6 C 434.1 147.1 444 184.1 444 224 Z"/></g><g><g transform="matrix(1,0,0,1,0,0)"><g transform="matrix(1,0,0,1,0,0)"><path fill="#a30000" stroke="none" id="_E972023C-8646-4FF3-A640-63288FC35BD3?shapeType=BORDER&amp;renderType=FILL" paint-order="stroke fill markers" d=" M 0 0 M 224 0 C 100.3 0 0 100.3 0 224 C 0 347.7 100.3 448 224 448 C 347.7 448 448 347.7 448 224 C 448 100.30000000000001 347.7 0 224 0 Z M 0 0 M 224 400 C 126.8 400 48 321.2 48 224 C 48 126.80000000000001 126.8 48 224 48 C 321.2 48 400 126.8 400 224 C 400 321.2 321.2 400 224 400 Z"/></g></g></g><g><g transform="matrix(1,0,0,1,0,0)"><g transform="matrix(1,0,0,1,0,0)"><path fill="#a30000" stroke="none" id="_E972023C-8646-4FF3-A640-63288FC35BD3undefined" paint-order="stroke fill markers" d=" M 0 0 M 173.5 132.7 C 172.8 132.7 172.1 132.79999999999998 171.3 133.1 C 168 134.29999999999998 167.5 135.9 165.60000000000002 139.9 C 164.00000000000003 143.3 120.40000000000002 278.3 120.40000000000002 278.3 C 120.40000000000002 278.3 119.10000000000002 282.8 122.90000000000002 284.40000000000003 C 123.50000000000001 284.70000000000005 124.10000000000002 284.8 124.70000000000002 284.8 C 127.50000000000001 284.8 129.4 282.2 129.4 282.2 L 192.3 228.29999999999998 L 263.9 305.4 C 266 307.4 267.9 308.7 270.09999999999997 308.7 C 270.79999999999995 308.7 271.49999999999994 308.5 272.29999999999995 308.3 C 275.59999999999997 307.1 276.4 305.1 277.99999999999994 301.5 C 279.49999999999994 298.1 328.09999999999997 163.1 328.09999999999997 163.1 C 328.09999999999997 163.1 329.4 158.6 325.7 157 C 325.09999999999997 156.7 324.5 156.6 323.8 156.6 C 321 156.6 319.2 159.2 319.2 159.2 L 256.3 213.5 C 256.3 213.5 182.70000000000002 138.6 179.8 136 C 177.6 134 175.7 132.7 173.5 132.7 L 173.5 132.7 Z"/></g></g></g></g><g transform="matrix(1,0,0,1,28,61)"/></g><g transform="matrix(1,0,0,1,1072,388)"/><g id="_8A918AC7-92C8-4B94-9223-31311C2731FF" bpmn2nodeid="_8A918AC7-92C8-4B94-9223-31311C2731FF" transform="matrix(1,0,0,1,728,365)"><g><path fill="none" stroke="none"/></g><g transform="matrix(1,0,0,1,0,0)"><path fill="#ffffff" stroke="none" id="_8A918AC7-92C8-4B94-9223-31311C2731FF?shapeType=BACKGROUND" paint-order="stroke fill markers" d=" M 2 0 L 152 0 L 152 0 A 2 2 0 0 1 154 2 L 154 100 L 154 100 A 2 2 0 0 1 152 102 L 2 102 L 2 102 A 2 2 0 0 1 0 100 L 0 2 L 0 2.0000000000000004 A 2 2 0 0 1 1.9999999999999996 0 Z"/></g><g transform="matrix(1,0,0,1,0,0)"><path fill="none" stroke="#000000" id="_8A918AC7-92C8-4B94-9223-31311C2731FF?shapeType=BORDER&amp;renderType=STROKE" paint-order="fill stroke markers" d=" M 2 0 L 152 0 L 152 0 A 2 2 0 0 1 154 2 L 154 100 L 154 100 A 2 2 0 0 1 152 102 L 2 102 L 2 102 A 2 2 0 0 1 0 100 L 0 2 L 0 2.0000000000000004 A 2 2 0 0 1 1.9999999999999996 0 Z" stroke-miterlimit="10" stroke-width="1.5" stroke-dasharray=""/></g><g><g transform="matrix(0.06,0,0,0.06,9.4,9.4)"><g transform="matrix(1,0,0,1,0,0)"><path fill="#393f44" stroke="none" id="_8A918AC7-92C8-4B94-9223-31311C2731FFundefined" paint-order="stroke fill markers" d=" M 0 0 M 16 445.2101 C 16 440.86867 18.784312 431.12906000000004 22.001325 424.21728 C 35.767643 394.6402 77.282944 359.28049 129 333.08362 C 144.51625 325.22398 157.34689 319.96394 167.80739 317.17416 C 171.93153 316.07426 175.72913 314.41389999999996 176.5251 313.36265 C 178.89361 310.23449999999997 180.91404 302.90781 181.72673 294.5 L 182.5 286.5 L 178.50715 283.45457 C 166.30327 274.14645 154.2837 251.67767 148.03953 226.5 C 145.61086 216.70715 145.05603000000002 215.46246 142.98364 215.1579 C 141.70332000000002 214.96974 138.08302 212.24302 134.93852 209.09852 C 123.23314 197.39314000000002 116.89146000000001 177.37556 121.43982000000001 166.48978 C 123.00204000000001 162.75088 128.15457 159.00970999999998 131.75 159.00374 C 134.44781 158.99974 134.47062 158.60296 132.91375 138.78796 C 130.92658 113.4962 134.27903 92.26542699999999 143.13217 74.075676 C 152.23162 55.379835 167.56889 42.88208 189.04934 36.659507000000005 C 210.20334 30.531504000000005 237.79666 30.531504000000005 258.95065999999997 36.659507000000005 C 300.04166 48.562968000000005 318.95842 83.80634 314.95504999999997 141 C 314.31982999999997 150.075 313.62402 157.78816 313.4088 158.14035 C 313.19359 158.49254000000002 314.57532 159.07295000000002 316.47931 159.43014000000002 C 328.92867 161.76565000000002 330.98619 177.01772000000003 321.49638 196.62092 C 316.90319 206.10912000000002 309.35724 214.50797 304.81732 215.18517000000003 C 303.02259 215.45289000000002 302.2931 217.14618000000002 299.94277999999997 226.50000000000003 C 296.65948 239.56693 294.47402 245.30522000000002 287.94764 257.99534000000006 C 282.49071999999995 268.60596000000004 273.03466 281.10922000000005 268.10756999999995 284.2288300000001 L 264.87062 286.27832000000006 L 265.51815999999997 292.88916000000006 C 266.34490999999997 301.32961000000006 268.63948999999997 309.8706000000001 270.87735999999995 312.83742000000007 C 272.06735 314.4150200000001 275.00244999999995 315.78963000000005 280.0630699999999 317.13941000000005 C 291.06929999999994 320.0750300000001 303.61700999999994 325.27420000000006 320.99999999999994 334.10171 C 369.81470999999993 358.89104000000003 410.84810999999996 393.75797 425.03216 422.5 C 429.06985999999995 430.68183 432 440.23198 432 445.2101 L 432 448 L 224 448 L 16 448 L 16 445.2101 Z"/></g></g></g><g transform="matrix(1,0,0,1,4.039999999999992,13.680000000000007)"><g transform="matrix(0.04,0,0,0.04,63.36,69.12)"><g transform="matrix(1,0,0,1,0,0)"><path fill="none" stroke="none"/></g><g transform="matrix(1,0,0,1,0,0)"><path fill="none" stroke="none"/></g></g></g><g transform="matrix(1,0,0,1,36.9765625,36)"><text fill="#000000" stroke="none" font-family="Open Sans" font-size="12pt" font-style="normal" font-weight="normal" text-decoration="normal" x="40.0234375" y="12" text-anchor="middle" dominant-baseline="alphabetic">Confirmar </text><text fill="#000000" stroke="none" font-family="Open Sans" font-size="12pt" font-style="normal" font-weight="normal" text-decoration="normal" x="40.0234375" y="27" text-anchor="middle" dominant-baseline="alphabetic">reintento? </text></g></g><g transform="matrix(1,0,0,1,728,365)"/><g id="_55F264F2-2C12-4DA4-9B5C-C70D10914DF0" bpmn2nodeid="_55F264F2-2C12-4DA4-9B5C-C70D10914DF0" transform="matrix(1,0,0,1,1160,119)"><g><path fill="none" stroke="none"/></g><g transform="matrix(0.125,0,0,0.125,0,0)"><g transform="matrix(1,0,0,1,0,0)"><path fill="#fce7e7" stroke="none" id="_55F264F2-2C12-4DA4-9B5C-C70D10914DF0?shapeType=BACKGROUND" paint-order="stroke fill markers" d=" M 0 0 M 444 224 C 444 263.9 434.2 300.8 414.4 334.5 C 394.7 368.2 368 394.9 334.4 414.5 C 300.79999999999995 434.1 263.9 444 224 444 C 184.10000000000002 444 147.2 434.2 113.5 414.4 C 79.8 394.7 53.1 368 33.5 334.4 C 13.899999999999999 300.79999999999995 4 263.9 4 224 C 4 184.10000000000002 13.8 147.2 33.6 113.5 C 53.400000000000006 79.80000000000001 80.1 53.1 113.6 33.5 C 147.1 13.899999999999999 184.1 4 224 4 C 263.9 4 300.8 13.8 334.5 33.6 C 368.2 53.400000000000006 394.9 80.1 414.5 113.6 C 434.1 147.1 444 184.1 444 224 Z"/></g><g><g transform="matrix(1,0,0,1,0,0)"><g transform="matrix(1,0,0,1,0,0)"><path fill="#a30000" stroke="none" id="_55F264F2-2C12-4DA4-9B5C-C70D10914DF0?shapeType=BORDER&amp;renderType=FILL" paint-order="stroke fill markers" d=" M 0 0 M 224 0 C 100.3 0 0 100.3 0 224 C 0 347.7 100.3 448 224 448 C 347.7 448 448 347.7 448 224 C 448 100.30000000000001 347.7 0 224 0 Z M 0 0 M 224 400 C 126.8 400 48 321.2 48 224 C 48 126.80000000000001 126.8 48 224 48 C 321.2 48 400 126.8 400 224 C 400 321.2 321.2 400 224 400 Z"/></g></g></g></g><g transform="matrix(1,0,0,1,28,61)"/></g><g transform="matrix(1,0,0,1,1160,119)"/><g id="_E8695757-D057-4286-A641-98AF82C07E31" bpmn2nodeid="_E8695757-D057-4286-A641-98AF82C07E31" transform="matrix(1,0,0,1,939,388)"><g><path fill="none" stroke="none"/></g><g transform="matrix(0.125,0,0,0.125,0,0)"><g transform="matrix(1,0,0,1,0,0)"><path fill="#fef4ea" stroke="none" id="_E8695757-D057-4286-A641-98AF82C07E31?shapeType=BACKGROUND" paint-order="stroke fill markers" d=" M 0 0 M 224.4 4.3 C 216.4 4.3 208.4 7.3 202.3 13.399999999999999 L 13.5 202.2 C 1.3000000000000007 214.39999999999998 1.3000000000000007 234.2 13.5 246.39999999999998 L 202.2 435.09999999999997 C 208.29999999999998 441.2 216.39999999999998 444.2 224.29999999999998 444.2 C 232.2 444.2 240.29999999999998 441.2 246.39999999999998 435.09999999999997 L 435.09999999999997 246.39999999999998 C 447.29999999999995 234.2 447.29999999999995 214.39999999999998 435.09999999999997 202.2 L 246.5 13.4 C 240.4 7.3 232.4 4.3 224.4 4.3 L 224.4 4.3 Z"/></g><g><g transform="matrix(1,0,0,1,0,0)"><g transform="matrix(1,0,0,1,0,0)"><path fill="#ec7a08" stroke="none" id="_E8695757-D057-4286-A641-98AF82C07E31?shapeType=BORDER&amp;renderType=FILL" paint-order="stroke fill markers" d=" M 0 0 M 20.8 212.7 L 213.3 20.2 C 219.60000000000002 13.899999999999999 229.70000000000002 13.899999999999999 235.9 20.2 L 428.4 212.7 C 434.7 219 434.7 229.1 428.4 235.29999999999998 L 235.9 427.8 C 229.6 434.1 219.5 434.1 213.3 427.8 L 20.8 235.3 C 14.5 229.1 14.5 218.9 20.8 212.7 L 20.8 212.7 Z M 0 0 M 0 224 C 0 232.1 3.1 240.3 9.3 246.5 L 201.5 438.7 C 213.9 451.09999999999997 234.1 451.09999999999997 246.5 438.7 L 438.7 246.5 C 444.9 240.3 448 232.1 448 224 C 448 215.9 444.9 207.7 438.7 201.5 L 246.5 9.3 C 234.1 -3.0999999999999996 213.9 -3.0999999999999996 201.5 9.3 L 9.3 201.5 C 3.1 207.7 0 215.9 0 224 L 0 224 Z"/></g></g></g><g><g transform="matrix(1,0,0,1,0,0)"><g transform="matrix(1,0,0,1,0,0)"><path fill="#ec7a08" stroke="none" id="_E8695757-D057-4286-A641-98AF82C07E31undefined" paint-order="stroke fill markers" d=" M 0 0 M 298.2 269.2 C 298.2 272.59999999999997 297.09999999999997 275.3 294.7 277.7 L 277.7 294.7 C 275.3 297.09999999999997 272.59999999999997 298.2 269.2 298.2 C 265.8 298.2 263.09999999999997 297.09999999999997 260.7 294.7 L 224 258 L 187.2 294.8 C 184.79999999999998 297.2 182.1 298.3 178.7 298.3 C 175.29999999999998 298.3 172.6 297.2 170.2 294.8 L 153.2 277.8 C 150.79999999999998 275.40000000000003 149.7 272.7 149.7 269.3 C 149.7 265.90000000000003 150.79999999999998 263.2 153.2 260.8 L 190 224 L 153.2 187.2 C 150.79999999999998 184.79999999999998 149.7 182 149.7 178.7 C 149.7 175.29999999999998 150.79999999999998 172.5 153.2 170.2 L 170.2 153.2 C 172.6 150.79999999999998 175.29999999999998 149.7 178.7 149.7 C 182.1 149.7 184.79999999999998 150.79999999999998 187.2 153.2 L 224 190 L 260.8 153.2 C 263.2 150.79999999999998 265.90000000000003 149.7 269.3 149.7 C 272.7 149.7 275.40000000000003 150.79999999999998 277.8 153.2 L 294.8 170.2 C 297.2 172.5 298.3 175.29999999999998 298.3 178.7 C 298.3 182 297.2 184.79999999999998 294.8 187.2 L 258 224 L 294.8 260.8 C 297.1 263.1 298.2 265.9 298.2 269.2 Z"/></g></g></g></g><g transform="matrix(1,0,0,1,28,61)"/></g><g transform="matrix(1,0,0,1,939,388)"/><g id="_5DD14FD9-F506-4F90-A419-5D1A83D56752" bpmn2nodeid="_5DD14FD9-F506-4F90-A419-5D1A83D56752" transform="matrix(1,0,0,1,174,119)"><g><path fill="none" stroke="none"/></g><g transform="matrix(0.125,0,0,0.125,0,0)"><g transform="matrix(1,0,0,1,0,0)"><path fill="#fef4ea" stroke="none" id="_5DD14FD9-F506-4F90-A419-5D1A83D56752?shapeType=BACKGROUND" paint-order="stroke fill markers" d=" M 0 0 M 224.4 4.3 C 216.4 4.3 208.4 7.3 202.3 13.399999999999999 L 13.5 202.2 C 1.3000000000000007 214.39999999999998 1.3000000000000007 234.2 13.5 246.39999999999998 L 202.2 435.09999999999997 C 208.29999999999998 441.2 216.39999999999998 444.2 224.29999999999998 444.2 C 232.2 444.2 240.29999999999998 441.2 246.39999999999998 435.09999999999997 L 435.09999999999997 246.39999999999998 C 447.29999999999995 234.2 447.29999999999995 214.39999999999998 435.09999999999997 202.2 L 246.5 13.4 C 240.4 7.3 232.4 4.3 224.4 4.3 L 224.4 4.3 Z"/></g><g><g transform="matrix(1,0,0,1,0,0)"><g transform="matrix(1,0,0,1,0,0)"><path fill="#ec7a08" stroke="none" id="_5DD14FD9-F506-4F90-A419-5D1A83D56752?shapeType=BORDER&amp;renderType=FILL" paint-order="stroke fill markers" d=" M 0 0 M 20.8 212.7 L 213.3 20.2 C 219.60000000000002 13.899999999999999 229.70000000000002 13.899999999999999 235.9 20.2 L 428.4 212.7 C 434.7 219 434.7 229.1 428.4 235.29999999999998 L 235.9 427.8 C 229.6 434.1 219.5 434.1 213.3 427.8 L 20.8 235.3 C 14.5 229.1 14.5 218.9 20.8 212.7 L 20.8 212.7 Z M 0 0 M 0 224 C 0 232.1 3.1 240.3 9.3 246.5 L 201.5 438.7 C 213.9 451.09999999999997 234.1 451.09999999999997 246.5 438.7 L 438.7 246.5 C 444.9 240.3 448 232.1 448 224 C 448 215.9 444.9 207.7 438.7 201.5 L 246.5 9.3 C 234.1 -3.0999999999999996 213.9 -3.0999999999999996 201.5 9.3 L 9.3 201.5 C 3.1 207.7 0 215.9 0 224 L 0 224 Z"/></g></g></g><g><g transform="matrix(1,0,0,1,0,0)"><g transform="matrix(1,0,0,1,0,0)"><path fill="#ec7a08" stroke="none" id="_5DD14FD9-F506-4F90-A419-5D1A83D56752undefined" paint-order="stroke fill markers" d=" M 0 0 M 298.2 269.2 C 298.2 272.59999999999997 297.09999999999997 275.3 294.7 277.7 L 277.7 294.7 C 275.3 297.09999999999997 272.59999999999997 298.2 269.2 298.2 C 265.8 298.2 263.09999999999997 297.09999999999997 260.7 294.7 L 224 258 L 187.2 294.8 C 184.79999999999998 297.2 182.1 298.3 178.7 298.3 C 175.29999999999998 298.3 172.6 297.2 170.2 294.8 L 153.2 277.8 C 150.79999999999998 275.40000000000003 149.7 272.7 149.7 269.3 C 149.7 265.90000000000003 150.79999999999998 263.2 153.2 260.8 L 190 224 L 153.2 187.2 C 150.79999999999998 184.79999999999998 149.7 182 149.7 178.7 C 149.7 175.29999999999998 150.79999999999998 172.5 153.2 170.2 L 170.2 153.2 C 172.6 150.79999999999998 175.29999999999998 149.7 178.7 149.7 C 182.1 149.7 184.79999999999998 150.79999999999998 187.2 153.2 L 224 190 L 260.8 153.2 C 263.2 150.79999999999998 265.90000000000003 149.7 269.3 149.7 C 272.7 149.7 275.40000000000003 150.79999999999998 277.8 153.2 L 294.8 170.2 C 297.2 172.5 298.3 175.29999999999998 298.3 178.7 C 298.3 182 297.2 184.79999999999998 294.8 187.2 L 258 224 L 294.8 260.8 C 297.1 263.1 298.2 265.9 298.2 269.2 Z"/></g></g></g></g><g transform="matrix(1,0,0,1,28,61)"/></g><g transform="matrix(1,0,0,1,174,119)"/><g id="_0B465CEF-48D6-4E45-B396-A849E20E080B" bpmn2nodeid="_0B465CEF-48D6-4E45-B396-A849E20E080B" transform="matrix(1,0,0,1,79,119)"><g><path fill="none" stroke="none"/></g><g transform="matrix(0.125,0,0,0.125,0,0)"><g transform="matrix(1,0,0,1,0,0)"><path fill="#e8fae6" stroke="none" id="_0B465CEF-48D6-4E45-B396-A849E20E080B?shapeType=BACKGROUND" paint-order="stroke fill markers" d=" M 0 0 M 444 224 C 444 263.9 434.2 300.8 414.4 334.5 C 394.7 368.2 368 394.9 334.4 414.5 C 300.79999999999995 434.1 263.9 444 224 444 C 184.10000000000002 444 147.2 434.2 113.5 414.4 C 79.8 394.7 53.1 368 33.5 334.4 C 13.899999999999999 300.79999999999995 4 263.9 4 224 C 4 184.10000000000002 13.8 147.2 33.6 113.5 C 53.400000000000006 79.80000000000001 80.1 53.1 113.6 33.5 C 147.1 13.899999999999999 184.1 4 224 4 C 263.9 4 300.8 13.8 334.5 33.6 C 368.2 53.400000000000006 394.9 80.1 414.5 113.6 C 434.1 147.1 444 184.1 444 224 Z"/></g><g><g transform="matrix(1,0,0,1,0,0)"><g transform="matrix(1,0,0,1,0,0)"><path fill="#4aa241" stroke="none" id="_0B465CEF-48D6-4E45-B396-A849E20E080B?shapeType=BORDER&amp;renderType=FILL" paint-order="stroke fill markers" d=" M 0 0 M 224 0 C 100.3 0 0 100.3 0 224 C 0 347.7 100.3 448 224 448 C 347.7 448 448 347.7 448 224 C 448 100.30000000000001 347.7 0 224 0 Z M 0 0 M 224 432 C 109.1 432 16 338.9 16 224 C 16 109.10000000000002 109.1 16 224 16 C 338.9 16 432 109.1 432 224 C 432 338.9 338.9 432 224 432 Z"/></g></g></g></g><g transform="matrix(1,0,0,1,28,61)"/></g><g transform="matrix(1,0,0,1,79,119)"/><g transform="matrix(1,0,0,1,333.5,31)"/><g transform="matrix(1,0,0,1,935,76)"/><g transform="matrix(1,0,0,1,935,174)"/><g transform="matrix(1,0,0,1,793,76)"/><g transform="matrix(1,0,0,1,365,76)"/><g transform="matrix(1,0,0,1,549,53)"/><g transform="matrix(1,0,0,1,799.6682847896441,238)"/><g transform="matrix(1,0,0,1,776.5,238)"/><g id="_2BDB3661-1511-4AD6-9F05-C953154B8E70" bpmn2nodeid="_2BDB3661-1511-4AD6-9F05-C953154B8E70"><g><path fill="none" stroke="#000000" paint-order="fill stroke markers" d=" M 827.6682847896441 294 L 531.687744140625 433 L 412 433" stroke-miterlimit="10" stroke-dasharray=""/></g><g transform="matrix(1,0,0,1,827.6682847896441,294)"/><g transform="matrix(-1.8369701987210297e-16,-1,1,-1.8369701987210297e-16,397,438)"><path fill="#000000" stroke="#000000" paint-order="fill stroke markers" d=" M 10 15 L 0 15 L 5 0 Z" stroke-miterlimit="10" stroke-dasharray=""/></g><g transform="matrix(1,0,0,1,593.4134324805117,354.4484583530916)"/></g><g id="_225FA84D-449F-45B4-A388-1D45613358EA" bpmn2nodeid="_225FA84D-449F-45B4-A388-1D45613358EA"><g><path fill="none" stroke="#000000" paint-order="fill stroke markers" d=" M 341 433 L 199 433 L 201.82559318556784 189.99898604116558" stroke-miterlimit="10" stroke-dasharray=""/></g><g transform="matrix(1,0,0,1,341,433)"/><g transform="matrix(0.9999324027443713,0.011627120962143973,-0.011627120962143973,0.9999324027443713,197.00033798627814,174.94186439518927)"><path fill="#000000" stroke="#000000" paint-order="fill stroke markers" d=" M 10 15 L 0 15 L 5 0 Z" stroke-miterlimit="10" stroke-dasharray=""/></g><g transform="matrix(1,0,0,1,199,423)"/></g><g id="_5F1B5444-A895-4801-B441-D9B04AC88BA2" bpmn2nodeid="_5F1B5444-A895-4801-B441-D9B04AC88BA2"><g><path fill="none" stroke="#000000" paint-order="fill stroke markers" d=" M 230 147.319391634981 L 318.5009757754715 148.32890846892172" stroke-miterlimit="10" stroke-dasharray=""/></g><g transform="matrix(1,0,0,1,230,147.319391634981)"/><g transform="matrix(-0.011406102071885008,0.9999349483019011,-0.9999349483019011,-0.011406102071885008,333.5570305103594,143.5003252584905)"><path fill="#000000" stroke="#000000" paint-order="fill stroke markers" d=" M 10 15 L 0 15 L 5 0 Z" stroke-miterlimit="10" stroke-dasharray=""/></g><g transform="matrix(1,0,0,1,230.11406102071885,137.91034633447148)"/></g><g id="_B9B5FF99-981C-407B-A0AD-210F55E00035" bpmn2nodeid="_B9B5FF99-981C-407B-A0AD-210F55E00035"><g><path fill="none" stroke="#000000" paint-order="fill stroke markers" d=" M 1062.5 148.5 L 1145.0017748328762 147.23074192564806" stroke-miterlimit="10" stroke-dasharray=""/></g><g transform="matrix(1,0,0,1,1062.5,148.5)"/><g transform="matrix(0.015382795043204278,0.9998816778082589,-0.9998816778082589,0.015382795043204278,1159.923086024784,142.0005916109587)"><path fill="#000000" stroke="#000000" paint-order="fill stroke markers" d=" M 10 15 L 0 15 L 5 0 Z" stroke-miterlimit="10" stroke-dasharray=""/></g><g transform="matrix(1,0,0,1,1062.653827950432,137.75118322191742)"/></g><g id="_EC4E03F9-8DE7-42B3-96EF-EE13CC761929" bpmn2nodeid="_EC4E03F9-8DE7-42B3-96EF-EE13CC761929"><g><path fill="none" stroke="#000000" paint-order="fill stroke markers" d=" M 804.6414141414141 294 L 804.924243390421 350.0001913033497" stroke-miterlimit="10" stroke-dasharray=""/></g><g transform="matrix(1,0,0,1,804.6414141414141,294)"/><g transform="matrix(-0.9999872464433514,0.005050440638600228,-0.005050440638600228,-0.9999872464433514,809.9999362322168,364.974747796807)"><path fill="#000000" stroke="#000000" paint-order="fill stroke markers" d=" M 10 15 L 0 15 L 5 0 Z" stroke-miterlimit="10" stroke-dasharray=""/></g><g transform="matrix(1,0,0,1,814.6412866058477,329.44949559361396)"/></g><g id="_B310EA7D-9727-4522-B1FD-20D59CD771A6" bpmn2nodeid="_B310EA7D-9727-4522-B1FD-20D59CD771A6"><g><path fill="none" stroke="#000000" paint-order="fill stroke markers" d=" M 882 416 L 924 416" stroke-miterlimit="10" stroke-dasharray=""/></g><g transform="matrix(1,0,0,1,882,416)"/><g transform="matrix(6.123233995736766e-17,1,-1,6.123233995736766e-17,939,411)"><path fill="#000000" stroke="#000000" paint-order="fill stroke markers" d=" M 10 15 L 0 15 L 5 0 Z" stroke-miterlimit="10" stroke-dasharray=""/></g><g transform="matrix(1,0,0,1,882,406)"/></g><g id="_2A7AF080-30AB-44E5-8120-5E436F4C370F" bpmn2nodeid="_2A7AF080-30AB-44E5-8120-5E436F4C370F"><g><path fill="none" stroke="#000000" paint-order="fill stroke markers" d=" M 995 416 L 1057 416" stroke-miterlimit="10" stroke-dasharray=""/></g><g transform="matrix(1,0,0,1,995,416)"/><g transform="matrix(6.123233995736766e-17,1,-1,6.123233995736766e-17,1072,411)"><path fill="#000000" stroke="#000000" paint-order="fill stroke markers" d=" M 10 15 L 0 15 L 5 0 Z" stroke-miterlimit="10" stroke-dasharray=""/></g><g transform="matrix(1,0,0,1,995,406)"/></g><g id="_5DAE2405-F453-41E4-9D16-A1D37ED0CB15" bpmn2nodeid="_5DAE2405-F453-41E4-9D16-A1D37ED0CB15"><g><path fill="none" stroke="#000000" paint-order="fill stroke markers" d=" M 967 444 L 967 513 L 196 513 L 201.73376975392117 189.9976371957743" stroke-miterlimit="10" stroke-dasharray=""/></g><g transform="matrix(1,0,0,1,967,444)"/><g transform="matrix(0.9998424797182867,0.01774868307192216,-0.01774868307192216,0.9998424797182867,197.00078760140858,174.9112565846404)"><path fill="#000000" stroke="#000000" paint-order="fill stroke markers" d=" M 10 15 L 0 15 L 5 0 Z" stroke-miterlimit="10" stroke-dasharray=""/></g><g transform="matrix(1,0,0,1,977,478.5)"/></g><g id="_71CA1CEA-8C10-4B69-9034-5D7B4C8E9A21" bpmn2nodeid="_71CA1CEA-8C10-4B69-9034-5D7B4C8E9A21"><g><path fill="none" stroke="#000000" paint-order="fill stroke markers" d=" M 135 147 L 159 147" stroke-miterlimit="10" stroke-dasharray=""/></g><g transform="matrix(1,0,0,1,135,147)"/><g transform="matrix(6.123233995736766e-17,1,-1,6.123233995736766e-17,174,142)"><path fill="#000000" stroke="#000000" paint-order="fill stroke markers" d=" M 10 15 L 0 15 L 5 0 Z" stroke-miterlimit="10" stroke-dasharray=""/></g><g transform="matrix(1,0,0,1,135,137)"/></g><g id="_6620A02D-EFF2-4C37-A172-336BF92799DE" bpmn2nodeid="_6620A02D-EFF2-4C37-A172-336BF92799DE"><g><path fill="none" stroke="#000000" paint-order="fill stroke markers" d=" M 421 104 L 534 104" stroke-miterlimit="10" stroke-dasharray=""/></g><g transform="matrix(1,0,0,1,421,104)"/><g transform="matrix(6.123233995736766e-17,1,-1,6.123233995736766e-17,549,99)"><path fill="#000000" stroke="#000000" paint-order="fill stroke markers" d=" M 10 15 L 0 15 L 5 0 Z" stroke-miterlimit="10" stroke-dasharray=""/></g><g transform="matrix(1,0,0,1,421,94)"/></g><g id="_871995CE-7EFA-4587-8F0D-1D23D813DCAA" bpmn2nodeid="_871995CE-7EFA-4587-8F0D-1D23D813DCAA"><g><path fill="none" stroke="#000000" paint-order="fill stroke markers" d=" M 703 104 L 778 104" stroke-miterlimit="10" stroke-dasharray=""/></g><g transform="matrix(1,0,0,1,703,104)"/><g transform="matrix(6.123233995736766e-17,1,-1,6.123233995736766e-17,793,99)"><path fill="#000000" stroke="#000000" paint-order="fill stroke markers" d=" M 10 15 L 0 15 L 5 0 Z" stroke-miterlimit="10" stroke-dasharray=""/></g><g transform="matrix(1,0,0,1,703,94)"/></g><g id="_80E266D2-561E-4544-A9AA-F03D8DD27A68" bpmn2nodeid="_80E266D2-561E-4544-A9AA-F03D8DD27A68"><g><path fill="none" stroke="#000000" paint-order="fill stroke markers" d=" M 849 104 L 920 104" stroke-miterlimit="10" stroke-dasharray=""/></g><g transform="matrix(1,0,0,1,849,104)"/><g transform="matrix(6.123233995736766e-17,1,-1,6.123233995736766e-17,935,99)"><path fill="#000000" stroke="#000000" paint-order="fill stroke markers" d=" M 10 15 L 0 15 L 5 0 Z" stroke-miterlimit="10" stroke-dasharray=""/></g><g transform="matrix(1,0,0,1,849,94)"/></g><g id="_47221623-FA2C-4131-9542-FD3C34150E7F" bpmn2nodeid="_47221623-FA2C-4131-9542-FD3C34150E7F"><g><path fill="none" stroke="#000000" paint-order="fill stroke markers" d=" M 820.9995243033183 132 L 820.9983520507812 201 L 920.0005770506615 201.86842801644394" stroke-miterlimit="10" stroke-dasharray=""/></g><g transform="matrix(1,0,0,1,820.9995243033183,132)"/><g transform="matrix(-0.008771465570403682,0.9999615299559015,-0.9999615299559015,-0.008771465570403682,935.043857327852,197.0001923502205)"><path fill="#000000" stroke="#000000" paint-order="fill stroke markers" d=" M 10 15 L 0 15 L 5 0 Z" stroke-miterlimit="10" stroke-dasharray=""/></g><g transform="matrix(1,0,0,1,830.9983520493381,166.49983010832798)"/></g></g></g></svg>